{
  "version": "1.1.6",
  "modules": [
    {
      "id": 1,
      "plugin": "Core",
      "version": "1.1.6",
      "model": "AudioInterface",
      "params": [],
      "leftModuleId": 22,
      "data": {
        "audio": {
          "driver": 8,
          "deviceName": "Default Device",
          "offset": 0,
          "maxChannels": 8,
          "sampleRate": 44100,
          "blockSize": 256
        }
      },
      "pos": [
        59,
        0
      ]
    },
    {
      "id": 2,
      "plugin": "Fundamental",
      "version": "1.4.0",
      "model": "VCMixer",
      "params": [
        {
          "id": 0,
          "value": 0.0600003526
        },
        {
          "id": 1,
          "value": 1.0
        },
        {
          "id": 2,
          "value": 1.0
        },
        {
          "id": 3,
          "value": 1.0
        },
        {
          "id": 4,
          "value": 1.0
        }
      ],
      "leftModuleId": 42,
      "pos": [
        41,
        0
      ]
    },
    {
      "id": 5,
      "plugin": "Core",
      "version": "1.1.6",
      "model": "MIDIToCVInterface",
      "params": [],
      "data": {
        "channels": 1,
        "polyMode": 0,
        "clockDivision": 24,
        "lastPitch": 8192,
        "lastMod": 0,
        "midi": {
          "driver": -11,
          "deviceName": "QWERTY keyboard (US)",
          "channel": -1
        }
      },
      "pos": [
        0,
        0
      ]
    },
    {
      "id": 22,
      "plugin": "VCV-Recorder",
      "version": "1.1.0",
      "model": "Recorder",
      "params": [
        {
          "id": 0,
          "value": 0.477999568
        },
        {
          "id": 1,
          "value": 0.0
        }
      ],
      "rightModuleId": 1,
      "data": {
        "format": "wav",
        "path": "C:\\Users\\Owner\\Music/Final Sound ForMonster.wav",
        "incrementPath": true,
        "sampleRate": 44100,
        "depth": 16,
        "bitRate": 256000,
        "videoBitRate": 2048000
      },
      "pos": [
        54,
        0
      ]
    },
    {
      "id": 33,
      "plugin": "Fundamental",
      "version": "1.4.0",
      "model": "VCO",
      "params": [
        {
          "id": 0,
          "value": 1.0
        },
        {
          "id": 1,
          "value": 0.0
        },
        {
          "id": 2,
          "value": -33.9119835
        },
        {
          "id": 3,
          "value": -0.0239999909
        },
        {
          "id": 4,
          "value": 0.361500055
        },
        {
          "id": 5,
          "value": 0.445610017
        },
        {
          "id": 6,
          "value": 0.0555000119
        }
      ],
      "leftModuleId": 38,
      "pos": [
        103,
        0
      ]
    },
    {
      "id": 34,
      "plugin": "Fundamental",
      "version": "1.4.0",
      "model": "SEQ3",
      "params": [
        {
          "id": 0,
          "value": 1.88000083
        },
        {
          "id": 1,
          "value": 0.0
        },
        {
          "id": 2,
          "value": 0.0
        },
        {
          "id": 3,
          "value": 8.0
        },
        {
          "id": 4,
          "value": 0.0
        },
        {
          "id": 5,
          "value": 0.0
        },
        {
          "id": 6,
          "value": 0.0
        },
        {
          "id": 7,
          "value": 0.0
        },
        {
          "id": 8,
          "value": 0.0
        },
        {
          "id": 9,
          "value": 0.0
        },
        {
          "id": 10,
          "value": 0.0
        },
        {
          "id": 11,
          "value": 0.0
        },
        {
          "id": 12,
          "value": 0.0
        },
        {
          "id": 13,
          "value": 0.0
        },
        {
          "id": 14,
          "value": 0.0
        },
        {
          "id": 15,
          "value": 0.0
        },
        {
          "id": 16,
          "value": 0.0
        },
        {
          "id": 17,
          "value": 0.0
        },
        {
          "id": 18,
          "value": 0.0
        },
        {
          "id": 19,
          "value": 0.0
        },
        {
          "id": 20,
          "value": 0.0
        },
        {
          "id": 21,
          "value": 0.0
        },
        {
          "id": 22,
          "value": 0.0
        },
        {
          "id": 23,
          "value": 0.0
        },
        {
          "id": 24,
          "value": 0.0
        },
        {
          "id": 25,
          "value": 0.0
        },
        {
          "id": 26,
          "value": 0.0
        },
        {
          "id": 27,
          "value": 0.0
        },
        {
          "id": 28,
          "value": 0.0
        },
        {
          "id": 29,
          "value": 0.0
        },
        {
          "id": 30,
          "value": 0.0
        },
        {
          "id": 31,
          "value": 0.0
        },
        {
          "id": 32,
          "value": 0.0
        },
        {
          "id": 33,
          "value": 0.0
        },
        {
          "id": 34,
          "value": 0.0
        },
        {
          "id": 35,
          "value": 0.0
        }
      ],
      "rightModuleId": 37,
      "data": {
        "running": true,
        "gates": [
          1,
          1,
          1,
          1,
          1,
          1,
          1,
          1
        ]
      },
      "pos": [
        70,
        0
      ]
    },
    {
      "id": 37,
      "plugin": "HetrickCV",
      "version": "1.0.0",
      "model": "LogicCombine",
      "params": [],
      "leftModuleId": 34,
      "rightModuleId": 38,
      "pos": [
        92,
        0
      ]
    },
    {
      "id": 38,
      "plugin": "Bogaudio",
      "version": "1.1.37",
      "model": "Bogaudio-AD",
      "params": [
        {
          "id": 0,
          "value": 0.0304209441
        },
        {
          "id": 1,
          "value": 0.0
        },
        {
          "id": 2,
          "value": 0.0
        },
        {
          "id": 3,
          "value": 0.0
        },
        {
          "id": 4,
          "value": 1.0
        }
      ],
      "leftModuleId": 37,
      "rightModuleId": 33,
      "data": {
        "invert": 1.0
      },
      "pos": [
        100,
        0
      ]
    },
    {
      "id": 42,
      "plugin": "AudibleInstruments",
      "version": "1.5.0",
      "model": "Plaits",
      "params": [
        {
          "id": 0,
          "value": 0.0
        },
        {
          "id": 1,
          "value": 0.0
        },
        {
          "id": 2,
          "value": -2.48400068
        },
        {
          "id": 3,
          "value": 0.818499804
        },
        {
          "id": 4,
          "value": 0.616999865
        },
        {
          "id": 5,
          "value": 0.798500001
        },
        {
          "id": 6,
          "value": 0.213000044
        },
        {
          "id": 7,
          "value": -0.317999959
        },
        {
          "id": 8,
          "value": 0.228000045
        },
        {
          "id": 9,
          "value": 0.5
        },
        {
          "id": 10,
          "value": 0.5
        }
      ],
      "rightModuleId": 2,
      "data": {
        "lowCpu": false,
        "model": 0
      },
      "pos": [
        29,
        0
      ]
    },
    {
      "id": 45,
      "plugin": "Fundamental",
      "version": "1.4.0",
      "model": "VCO",
      "params": [
        {
          "id": 0,
          "value": 0.0
        },
        {
          "id": 1,
          "value": 1.0
        },
        {
          "id": 2,
          "value": -5.34599686
        },
        {
          "id": 3,
          "value": 0.504000008
        },
        {
          "id": 4,
          "value": 0.379500151
        },
        {
          "id": 5,
          "value": 0.714620352
        },
        {
          "id": 6,
          "value": 0.499500036
        }
      ],
      "pos": [
        9,
        0
      ]
    },
    {
      "id": 46,
      "plugin": "Fundamental",
      "version": "1.4.0",
      "model": "VCF",
      "params": [
        {
          "id": 0,
          "value": 0.825500131
        },
        {
          "id": 1,
          "value": 0.5
        },
        {
          "id": 2,
          "value": 0.471000105
        },
        {
          "id": 3,
          "value": 0.0
        },
        {
          "id": 4,
          "value": 0.414000094
        }
      ],
      "pos": [
        20,
        0
      ]
    },
    {
      "id": 47,
      "plugin": "HetrickCV",
      "version": "1.0.0",
      "model": "LogicCombine",
      "params": [],
      "pos": [
        29,
        1
      ]
    }
  ],
  "cables": [
    {
      "id": 27,
      "outputModuleId": 2,
      "outputId": 0,
      "inputModuleId": 1,
      "inputId": 0,
      "color": "#0986ad"
    },
    {
      "id": 28,
      "outputModuleId": 2,
      "outputId": 0,
      "inputModuleId": 1,
      "inputId": 1,
      "color": "#c9b70e"
    },
    {
      "id": 71,
      "outputModuleId": 34,
      "outputId": 4,
      "inputModuleId": 37,
      "inputId": 0,
      "color": "#0986ad"
    },
    {
      "id": 73,
      "outputModuleId": 37,
      "outputId": 0,
      "inputModuleId": 38,
      "inputId": 0,
      "color": "#0c8e15"
    },
    {
      "id": 72,
      "outputModuleId": 34,
      "outputId": 5,
      "inputModuleId": 37,
      "inputId": 1,
      "color": "#c9b70e"
    },
    {
      "id": 75,
      "outputModuleId": 34,
      "outputId": 7,
      "inputModuleId": 37,
      "inputId": 2,
      "color": "#0986ad"
    },
    {
      "id": 76,
      "outputModuleId": 34,
      "outputId": 8,
      "inputModuleId": 37,
      "inputId": 3,
      "color": "#c9b70e"
    },
    {
      "id": 85,
      "outputModuleId": 5,
      "outputId": 0,
      "inputModuleId": 45,
      "inputId": 0,
      "color": "#0986ad"
    },
    {
      "id": 86,
      "outputModuleId": 45,
      "outputId": 0,
      "inputModuleId": 46,
      "inputId": 3,
      "color": "#0c8e15"
    },
    {
      "id": 70,
      "outputModuleId": 38,
      "outputId": 0,
      "inputModuleId": 47,
      "inputId": 0,
      "color": "#c91847"
    },
    {
      "id": 90,
      "outputModuleId": 47,
      "outputId": 1,
      "inputModuleId": 2,
      "inputId": 3,
      "color": "#c91847"
    },
    {
      "id": 92,
      "outputModuleId": 42,
      "outputId": 0,
      "inputModuleId": 2,
      "inputId": 2,
      "color": "#c9b70e"
    },
    {
      "id": 89,
      "outputModuleId": 46,
      "outputId": 0,
      "inputModuleId": 2,
      "inputId": 1,
      "color": "#0c8e15"
    },
    {
      "id": 94,
      "outputModuleId": 33,
      "outputId": 0,
      "inputModuleId": 38,
      "inputId": 2,
      "color": "#0986ad"
    },
    {
      "id": 47,
      "outputModuleId": 2,
      "outputId": 0,
      "inputModuleId": 22,
      "inputId": 2,
      "color": "#c9b70e"
    }
  ]
}